<?xml version="1.0" encoding="UTF-8"?>
<svg width="752pt" height="752pt" version="1.1" viewBox="0 0 752 752" xmlns="http://www.w3.org/2000/svg">
 <path transform="matrix(.55913 0 0 .55913 139.21 139.21)" d="m817 606v-64.002h-782v65.001l391 136zm0 0" fill="none" stroke="#fff" stroke-linecap="round" stroke-linejoin="round" stroke-width="16.93"/>
 <path transform="matrix(.55913 0 0 .55913 139.21 139.21)" d="m115 542v-44.999l69.996-27.002v72.001" fill="none" stroke="#fff" stroke-linecap="round" stroke-linejoin="round" stroke-width="16.93"/>
 <path transform="matrix(.55913 0 0 .55913 139.21 139.21)" d="m185 470v-95l85.003-30.998v198" fill="none" stroke="#fff" stroke-linecap="round" stroke-linejoin="round" stroke-width="16.93"/>
 <path transform="matrix(.55913 0 0 .55913 139.21 139.21)" d="m270 344 58.001 12.003v186" fill="none" stroke="#fff" stroke-linecap="round" stroke-linejoin="round" stroke-width="16.93"/>
 <path transform="matrix(.55913 0 0 .55913 139.21 139.21)" d="m328 356v-207.01l72.001-44.999 114 43.001v395" fill="none" stroke="#fff" stroke-linecap="round" stroke-linejoin="round" stroke-width="16.93"/>
 <path transform="matrix(.55913 0 0 .55913 139.21 139.21)" d="m514 345 135 29.999v167" fill="none" stroke="#fff" stroke-linecap="round" stroke-linejoin="round" stroke-width="16.93"/>
 <path transform="matrix(.55913 0 0 .55913 139.21 139.21)" d="m649 470 72.001 27.002v44.999" fill="none" stroke="#fff" stroke-linecap="round" stroke-linejoin="round" stroke-width="16.93"/>
 <path transform="matrix(.55913 0 0 .55913 139.21 139.21)" d="m387 112v221l53.997-28.993v238" fill="none" stroke="#fff" stroke-linecap="round" stroke-linejoin="round" stroke-width="16.93"/>
 <path d="m322.61 338.26-32.43-6.7109v110.71h32.43z" fill="#fff" fill-rule="evenodd"/>
 <path d="m355.59 201.83v123.57l30.191-16.211v133.07h40.816v-220.86l-63.738-24.043z" fill="#fff" fill-rule="evenodd"/>
 <path d="m385.79 442.26h-227v36.344l218.62 76.043 218.62-76.602v-35.785z" fill="#fff" fill-rule="evenodd"/>
</svg>
