<?xml version="1.0" encoding="UTF-8"?>
<svg width="752pt" height="752pt" version="1.1" viewBox="0 0 752 752" xmlns="http://www.w3.org/2000/svg">
 <g fill="#fff">
  <path d="m376 158.95c16.348 0 29.598 16.348 29.598 29.598v49.332c0 16.348-13.25 29.598-29.598 29.598s-29.598-16.348-29.598-29.598v-49.332c0-16.348 13.25-29.598 29.598-29.598z"/>
  <path d="m405.6 366.14c0 16.344-13.254 29.598-29.602 29.598-16.344 0-29.598-13.254-29.598-29.598 0-16.348 13.254-29.602 29.598-29.602 16.348 0 29.602 13.254 29.602 29.602"/>
  <path d="m494.4 208.27h-69.066v39.465c0 10.469-4.1562 20.508-11.559 27.906-7.4023 7.4023-17.438 11.559-27.906 11.559h-19.73c-10.469 0-20.508-4.1562-27.906-11.559-7.4023-7.3984-11.559-17.438-11.559-27.906v-39.465h-69.066c-13.082 0-25.629 5.1992-34.883 14.449-9.25 9.2539-14.449 21.801-14.449 34.883v276.26c0 13.082 5.1992 25.629 14.449 34.883 9.2539 9.25 21.801 14.445 34.883 14.445h236.79c13.082 0 25.629-5.1953 34.879-14.445 9.2539-9.2539 14.449-21.801 14.449-34.883v-276.26c0-13.082-5.1953-25.629-14.449-34.883-9.25-9.25-21.797-14.449-34.879-14.449zm-118.4 108.53c13.086 0 25.633 5.1953 34.883 14.449 9.2539 9.25 14.449 21.797 14.449 34.883 0 13.082-5.1953 25.629-14.449 34.883-9.25 9.25-21.797 14.445-34.883 14.445-13.082 0-25.629-5.1953-34.883-14.445-9.25-9.2539-14.445-21.801-14.445-34.883 0-13.086 5.1953-25.633 14.445-34.883 9.2539-9.2539 21.801-14.449 34.883-14.449zm88.797 177.59c0 5.4453-4.418 9.8633-9.8672 9.8633-5.4453 0-9.8633-4.418-9.8633-9.8633v-19.734c0-7.8516-3.1211-15.379-8.6719-20.93s-13.078-8.668-20.93-8.668h-78.93c-7.8477 0-15.379 3.1172-20.93 8.668s-8.668 13.078-8.668 20.93v19.734c0 5.4453-4.418 9.8633-9.8672 9.8633-5.4492 0-9.8672-4.418-9.8672-9.8633v-19.734c0-13.082 5.1992-25.633 14.449-34.883 9.2539-9.25 21.801-14.449 34.883-14.449h78.93c13.086 0 25.633 5.1992 34.883 14.449 9.2539 9.25 14.449 21.801 14.449 34.883z"/>
 </g>
</svg>
